# xmcd CD database file
#
# Track frame offsets:
#	150
#	13977
#	26160
#	38795
#	53295
#	68110
#	82975
#	96760
#	111425
#	125202
#	139910
#	154847
#	169817
#	184972
#	199692
#	213552
#	226817
#	241885
#
# Disc length: 3416 seconds
#
# Revision: 0
# Processed by: cddbd v1.4PL0 Copyright (c) Steve Scherf et al.
# Submitted via: CDex 1.50beta9
#
DISCID=fc0d5612
DTITLE=Jean Sablon - 1933 - 1946 [CD2]
DYEAR=1997
DGENRE=Jazz
TTITLE0=Paris tu n'as pas changé
TTITLE1=Le Fiacre
TTITLE2=La valse au village
TTITLE3=Allez lui dire que je l'aime
TTITLE4=Rêverie
TTITLE5=Mon village au clair de lune
TTITLE6=Je tire ma révérence
TTITLE7=Ma mie
TTITLE8=Symphonie
TTITLE9=C'est le printemps
TTITLE10=Au revoir (J'attendrai)
TTITLE11=La chanson des rues
TTITLE12=Laura
TTITLE13=Rhum et Coca-Cola
TTITLE14=Quel beau jour pour moi
TTITLE15=Utrillo
TTITLE16=Libellule
TTITLE17=La maisonnette
EXTD=YEAR: 1997
EXTT0=
EXTT1=
EXTT2=
EXTT3=
EXTT4=
EXTT5=
EXTT6=
EXTT7=
EXTT8=
EXTT9=
EXTT10=
EXTT11=
EXTT12=
EXTT13=
EXTT14=
EXTT15=
EXTT16=
EXTT17=
PLAYORDER=
